<?xml version="1.0" encoding="utf-8"?>
<!-- Generator: Adobe Illustrator 17.1.0, SVG Export Plug-In . SVG Version: 6.00 Build 0)  -->
<!DOCTYPE svg PUBLIC "-//W3C//DTD SVG 1.1//EN" "http://www.w3.org/Graphics/SVG/1.1/DTD/svg11.dtd">
<svg version="1.1" id="Layer_1" xmlns="http://www.w3.org/2000/svg" xmlns:xlink="http://www.w3.org/1999/xlink" x="0px" y="0px"
	 viewBox="0 0 769 179.5" enable-background="new 0 0 769 179.5" xml:space="preserve">
<g>
	<g>
		<defs>
			<path id="SVGID_1_" d="M285.6,97.1V82.5H270v14.6h-9.5V59.6h9.5V75h15.5V59.6h9.5v37.5H285.6z M313.4,67.1v7.4h17.9V82h-17.9v7.5
				h20.4v7.5h-29.9V59.6h29.3v7.5H313.4z M349.7,90.2l-2.7,6.9h-9.8l16.2-37.5h9.8L379,97.1h-10.2l-2.7-6.9H349.7z M358,69.1
				l-5.5,13.9h10.8L358,69.1z M400.7,86.5h-0.3h-7.2v10.5h-9.5V59.6h16.8c9.9,0,15.6,4.7,15.6,13.1c0,5.7-2.4,9.8-6.8,12l7.9,12.4
				h-10.8L400.7,86.5z M400.5,79c4.1,0,6.5-2.1,6.5-6c0-3.9-2.4-5.9-6.5-5.9h-7.2V79H400.5z M441.1,67.3v29.8h-9.5V67.3h-11.2v-7.7
				h32v7.7H441.1z M486.9,63.4l-3.6,7.4c-4-2.3-8.9-3.9-12-3.9c-2.5,0-4.1,0.9-4.1,2.7c0,6.5,19.8,2.8,19.8,16.3
				c0,7.5-6.6,11.5-15,11.5c-6.3,0-12.7-2.4-17.1-6l3.7-7.3c3.9,3.4,9.6,5.6,13.5,5.6c3,0,4.9-1.1,4.9-3.3c0-6.6-19.8-2.7-19.8-15.9
				c0-6.9,5.9-11.3,14.9-11.3C477.6,59.2,483.1,60.8,486.9,63.4z M529.8,93.5c-3.1,2.6-6.8,4-10.7,4c-7.3,0-12.7-4.5-12.7-10.9
				c0-5,3.5-7.8,7.4-10c-2.2-3.2-3.2-5.7-3.2-8.4c0-5.5,4.2-9,10.7-9c6.3,0,10.7,3.5,10.7,8.4c0,5.2-4.3,8-8.8,10.3
				c1.6,1.8,3.5,3.8,5.9,6.2c1-1.8,1.9-3.8,2.5-6l5.9,4.2c-0.9,2.5-2.1,4.7-3.4,6.6l5.6,5.3l-4.7,4.5L529.8,93.5z M525.1,88.9
				c-3.1-3.1-5.7-5.7-7.7-7.9c-2,1.3-3.5,2.8-3.5,4.9c0,3.1,2.4,5.1,5.6,5.1C521.4,91,523.4,90.3,525.1,88.9z M519.8,73.5
				c2.8-1.6,5-3.3,5-5.8c0-1.9-1.3-3.3-3.4-3.3c-2.2,0-3.6,1.6-3.6,3.8C517.9,69.7,518.5,71.4,519.8,73.5z M583.9,97.1V82.5h-15.5
				v14.6h-9.5V59.6h9.5V75h15.5V59.6h9.5v37.5H583.9z M640.3,78.3c0,10.9-8.7,19.2-20.3,19.2c-11.6,0-20.2-8.2-20.2-19.2
				c0-10.9,8.7-19,20.2-19C631.6,59.3,640.3,67.4,640.3,78.3z M609.5,78.3c0,6.3,4.9,11.2,10.6,11.2c5.8,0,10.4-4.9,10.4-11.2
				c0-6.3-4.6-11.1-10.4-11.1C614.3,67.3,609.5,72,609.5,78.3z M679.3,97.1l-0.1-24.4l-9,20.6h-6.2l-9-20.6v24.4h-8.5V59.6H657
				l10.2,22.3l10.2-22.3h10.4v37.5H679.3z M706.1,67.1v7.4H724V82h-17.9v7.5h20.4v7.5h-29.9V59.6h29.3v7.5H706.1z M763.1,63.4
				l-3.6,7.4c-4-2.3-8.9-3.9-12-3.9c-2.5,0-4.1,0.9-4.1,2.7c0,6.5,19.8,2.8,19.8,16.3c0,7.5-6.6,11.5-15,11.5
				c-6.3,0-12.7-2.4-17.1-6l3.7-7.3c3.9,3.4,9.6,5.6,13.5,5.6c3,0,4.9-1.1,4.9-3.3c0-6.6-19.8-2.7-19.8-15.9
				c0-6.9,5.9-11.3,14.9-11.3C753.7,59.2,759.3,60.8,763.1,63.4z M266.3,122.7v9.9h15.5v5.1h-15.5v14h-5.8v-34.2h23l0,5.2H266.3z
				 M322.8,134.6c0,9.8-7.9,17.3-18.1,17.3c-10.2,0-18.1-7.6-18.1-17.3c0-9.8,7.9-17.2,18.1-17.2
				C314.9,117.3,322.8,124.8,322.8,134.6z M292.4,134.6c0,6.8,5.6,12.2,12.3,12.2c6.7,0,12.2-5.4,12.2-12.2
				c0-6.8-5.5-12.1-12.2-12.1C298,122.5,292.4,127.8,292.4,134.6z M345.1,141.3c-0.5,0-1,0-1.6,0h-8.1v10.3h-5.8v-34.2h13.9
				c8.7,0,13.8,4.2,13.8,11.7c0,5.5-2.5,9.3-7.1,11.1l7.7,11.4h-6.5L345.1,141.3z M343.6,136.2c5.3,0,8.3-2.2,8.3-6.9
				c0-4.5-3-6.6-8.3-6.6h-8.1v13.5H343.6z M394.6,141.3c-0.5,0-1,0-1.6,0h-8.1v10.3h-5.8v-34.2H393c8.7,0,13.8,4.2,13.8,11.7
				c0,5.5-2.5,9.3-7.1,11.1l7.7,11.4h-6.5L394.6,141.3z M393,136.2c5.3,0,8.3-2.2,8.3-6.9c0-4.5-3-6.6-8.3-6.6h-8.1v13.5H393z
				 M421,122.7v9.2h16.7v5.2H421v9.4h19.2v5.2h-25v-34.2h24.4v5.2H421z M453.8,122.7v9.9h15.5v5.1h-15.5v14h-5.8v-34.2h23l0,5.2
				H453.8z M506,137.5c0,8.9-5.6,14.4-14.8,14.4c-9.2,0-14.9-5.5-14.9-14.4v-20h5.8v20c0,5.8,3.6,9.2,9.2,9.2c5.6,0,9-3.4,9-9.2v-20
				h5.8V137.5z M543.4,134.9v12.6c-3.5,2.6-8.6,4.4-13.3,4.4c-10.1,0-18-7.6-18-17.3c0-9.8,8-17.2,18.3-17.2c4.9,0,9.8,1.9,13.1,4.8
				l-3.3,4.2c-2.6-2.4-6.3-3.9-9.9-3.9c-7,0-12.5,5.3-12.5,12.1c0,6.8,5.5,12.2,12.5,12.2c2.5,0,5.4-0.9,7.9-2.3v-9.5H543.4z
				 M558.1,122.7v9.2h16.7v5.2h-16.7v9.4h19.2v5.2h-25v-34.2h24.4v5.2H558.1z M590.9,122.7v9.2h16.7v5.2h-16.7v9.4h19.2v5.2h-25
				v-34.2h24.4v5.2H590.9z M640.9,120.8l-2.4,5.1c-3.7-2.2-7.4-3.2-10-3.2c-3.4,0-5.6,1.3-5.6,3.6c0,7.5,18.5,3.5,18.4,15.8
				c0,6.1-5.4,9.9-12.9,9.9c-5.4,0-10.5-2.2-14-5.4l2.5-5c3.5,3.2,7.9,5,11.6,5c4,0,6.4-1.5,6.4-4.2c0-7.6-18.5-3.4-18.5-15.5
				c0-5.9,5-9.5,12.5-9.5C633.4,117.2,637.8,118.7,640.9,120.8z"/>
		</defs>
		<clipPath id="SVGID_2_">
			<use xlink:href="#SVGID_1_"  overflow="visible"/>
		</clipPath>
		<linearGradient id="SVGID_3_" gradientUnits="userSpaceOnUse" x1="254.5949" y1="111.4855" x2="778.4665" y2="111.4855">
			<stop  offset="0" style="stop-color:#3055A4"/>
			<stop  offset="0.2514" style="stop-color:#38479E"/>
			<stop  offset="0.7737" style="stop-color:#4B228C"/>
			<stop  offset="1" style="stop-color:#531083"/>
		</linearGradient>
		<rect x="254.6" y="54.2" clip-path="url(#SVGID_2_)" fill="url(#SVGID_3_)" width="523.9" height="114.5"/>
	</g>
	<g>
		<g>
			<linearGradient id="SVGID_4_" gradientUnits="userSpaceOnUse" x1="4.7876" y1="91.3619" x2="163.6141" y2="91.3619">
				<stop  offset="0" style="stop-color:#3055A4"/>
				<stop  offset="0.2174" style="stop-color:#364A9F"/>
				<stop  offset="0.6514" style="stop-color:#462C91"/>
				<stop  offset="1" style="stop-color:#531083"/>
			</linearGradient>
			<path fill="url(#SVGID_4_)" d="M134.2,123.4c19.5-20.3,29.4-38.7,29.4-54.7c0-9.3-2.3-18-6.3-25.3l-6.9,7.2
				c2.5,5.4,3.8,11.6,3.8,18.2c0,13.3-9.3,30-26.8,48.2C112.6,132.3,95.8,145,87,151.2c-1.4,1-4.2,1-5.6,0v0
				c-8.7-6.2-25.6-18.9-40.4-34.3C23.4,98.6,14.2,82,14.2,68.7c0-17.8,9-32.1,22.9-36.5c14.4-4.6,30.3,3,42.5,20.4
				c1.1,1.6,2.8,2.5,4.7,2.4c1.8,0,3.5-1,4.6-2.6c11.3-17.1,26.8-24.7,41.4-20.3c3.7,1.1,7.2,3,10.2,5.4l6.5-6.8
				c-4.1-3.4-8.8-6-14-7.6c-17.5-5.2-35.4,2.1-48.9,19.8C69.8,25.1,51.5,17.8,34.3,23.2c-8.6,2.7-15.9,8.4-21.2,16.4
				c-5.4,8.2-8.3,18.2-8.3,29.1c0,16,9.9,34.4,29.4,54.7c15.3,15.9,32.7,29,41.8,35.4v0c2.3,1.6,5.3,2.5,8.2,2.5
				c3,0,5.9-0.8,8.2-2.5C101.5,152.4,118.9,139.3,134.2,123.4z"/>
		</g>
		<g>
			<linearGradient id="SVGID_5_" gradientUnits="userSpaceOnUse" x1="111.2562" y1="89.0302" x2="230.4935" y2="89.0302">
				<stop  offset="0" style="stop-color:#3055A4"/>
				<stop  offset="0.2174" style="stop-color:#364A9F"/>
				<stop  offset="0.6514" style="stop-color:#462C91"/>
				<stop  offset="1" style="stop-color:#531083"/>
			</linearGradient>
			<path fill="url(#SVGID_5_)" d="M226.8,68.8L180,20.7c-2.5-2.6-5.8-4-9.4-4c0,0,0,0,0,0c-3.6,0-6.9,1.4-9.4,4l-46.2,48
				c-2.4,2.5-3.7,5.7-3.7,9.1v49.8c3.2-2.8,6.4-5.8,9.5-8.9V77.9c0-0.9,0.4-1.8,1-2.5l46.2-48c0.7-0.7,1.6-1.1,2.6-1.1c0,0,0,0,0,0
				c1,0,1.9,0.4,2.6,1.1L220,75.4c0.7,0.7,1,1.6,1,2.5v70.3c0,2-1.6,3.6-3.6,3.6h-93c-2,0-3.6-1.6-3.6-3.6v-7.4
				c-3.3,2.8-6.4,5.5-9.5,8c0.3,7,6,12.5,13.1,12.5h93c7.2,0,13.1-5.9,13.1-13.1V77.9C230.5,74.5,229.2,71.3,226.8,68.8z"/>
		</g>
	</g>
</g>
</svg>
